<?xml version="1.0" encoding="UTF-8"?>
<!DOCTYPE svg PUBLIC "-//W3C//DTD SVG 1.1//EN" "http://www.w3.org/Graphics/SVG/1.1/DTD/svg11.dtd">
<!-- Creator: CorelDRAW -->
<svg xmlns="http://www.w3.org/2000/svg" xml:space="preserve" width="8.5in" height="11in" version="1.1" style="shape-rendering:geometricPrecision; text-rendering:geometricPrecision; image-rendering:optimizeQuality; fill-rule:evenodd; clip-rule:evenodd"
viewBox="0 0 8500 11000"
 xmlns:xlink="http://www.w3.org/1999/xlink">
 <defs>
  <style type="text/css">
   <![CDATA[
    .fil2 {fill:#005440}
    .fil0 {fill:#005440;fill-rule:nonzero}
    .fil1 {fill:url(#id0)}
   ]]>
  </style>
  <linearGradient id="id0" gradientUnits="userSpaceOnUse" x1="3635.56" y1="4874.88" x2="8063.93" y2="3042.16">
   <stop offset="0" style="stop-opacity:1; stop-color:#FAA831"/>
   <stop offset="0.2" style="stop-opacity:1; stop-color:#FFF212"/>
   <stop offset="0.411765" style="stop-opacity:1; stop-color:#FAA831"/>
   <stop offset="0.658824" style="stop-opacity:1; stop-color:#FFF212"/>
   <stop offset="0.788235" style="stop-opacity:1; stop-color:#FAA831"/>
   <stop offset="1" style="stop-opacity:1; stop-color:#FFF212"/>
  </linearGradient>
 </defs>
 <g id="Layer_x0020_1">
  <metadata id="CorelCorpID_0Corel-Layer"/>
  <g id="Bank_x0020_Mandiri_x0020_Syariah_x0020_Logo.cdr">
   <path class="fil0" d="M6251 4767l288 0 0 991 -288 0 0 -991zm-710 991l0 -683c0,-56 -1,-110 -3,-161 -1,-52 -4,-100 -8,-147l264 0 11 177c25,-60 65,-106 120,-138 54,-31 123,-46 204,-46l9 0 -1 260c-17,-1 -30,-2 -39,-3 -9,-1 -17,-1 -23,-1 -76,0 -135,18 -177,55 -43,36 -64,87 -64,152l0 535 -293 0zm-435 -991l288 0 0 991 -288 0 0 -991zm-467 991l-10 -141c-36,53 -78,93 -128,120 -50,27 -107,41 -170,41 -120,0 -218,-47 -293,-141 -74,-95 -112,-219 -112,-374 0,-156 37,-280 110,-374 73,-93 170,-140 291,-140 66,0 123,13 172,38 49,26 91,64 126,116l0 -567 286 0 0 1223c0,50 1,91 3,122 1,31 4,57 7,77l-282 0zm-421 -493c0,102 18,181 53,238 36,56 85,84 149,84 65,0 116,-29 154,-86 38,-58 57,-137 57,-236 0,-100 -19,-180 -57,-237 -38,-58 -89,-87 -154,-87 -64,0 -113,28 -149,85 -35,57 -53,137 -53,239zm-1362 493l0 -801c0,-28 -1,-58 -2,-89 -2,-30 -5,-64 -7,-101l274 0 6 149c37,-60 81,-104 133,-131 51,-28 113,-42 187,-42 109,0 190,31 243,93 53,62 80,157 80,284l0 638 -283 0 0 -598c0,-74 -13,-127 -39,-160 -25,-31 -66,-48 -123,-48 -56,0 -100,18 -134,54 -34,36 -51,83 -51,142l0 610 -284 0zm-2732 0l0 -801c0,-35 -1,-68 -2,-100 -2,-31 -4,-61 -6,-90l273 0 8 149c37,-60 81,-104 132,-131 51,-28 114,-42 187,-42 75,0 138,17 190,50 51,33 88,81 112,144 32,-67 74,-116 126,-147 52,-31 118,-47 198,-47 109,0 191,31 244,93 53,62 80,157 80,284l0 638 -286 0 0 -598c0,-74 -13,-127 -38,-160 -26,-31 -67,-48 -124,-48 -55,0 -100,18 -133,54 -33,36 -49,83 -49,142l0 610 -287 0 0 -598c0,-74 -12,-126 -37,-159 -25,-32 -66,-49 -122,-49 -55,0 -99,18 -131,53 -33,36 -49,83 -49,143l0 610 -286 0zm2317 -103c-58,50 -171,104 -249,122 -30,7 -62,10 -97,10 -83,0 -153,-29 -209,-88 -56,-58 -84,-133 -84,-224 0,-73 14,-132 42,-178 29,-47 70,-83 122,-110 52,-26 117,-45 193,-56 77,-12 157,-20 240,-25l0 -6c0,-237 -338,-207 -483,-106l-50 -187c113,-53 224,-79 362,-79 243,0 447,116 447,393l0 639 -234 0 0 -105zm-23 -194l0 -191c-44,4 -91,10 -142,17 -52,7 -90,16 -117,25 -32,12 -57,29 -74,51 -17,22 -26,51 -26,88 0,251 293,169 359,10z"/>
   <path class="fil1" d="M3316 4136c88,99 253,367 447,350 457,-39 717,-532 1280,-497 232,14 341,403 570,436 362,53 709,-504 1298,-472 243,14 343,421 585,444 225,22 578,-297 888,-463 -79,-133 -226,-340 -382,-351 -308,-21 -553,372 -824,304 -157,-40 -337,-473 -596,-472 -480,2 -811,477 -1236,515 -240,21 -356,-515 -679,-465 -441,67 -892,431 -1351,671z"/>
   <path class="fil2" d="M150 7096c53,32 132,65 219,65 154,0 226,-81 226,-180 0,-105 -64,-161 -204,-217 -159,-59 -246,-145 -246,-260 0,-139 111,-258 299,-258 89,0 166,26 214,60l-36 77c-35,-24 -97,-57 -194,-57 -124,0 -188,77 -188,164 0,100 68,141 200,195 157,61 250,139 250,284 0,163 -129,272 -327,272 -93,0 -182,-26 -247,-66l34 -79z"/>
   <path class="fil2" d="M884 7507c66,-50 150,-159 198,-272 9,-20 13,-32 13,-42 0,-8 -4,-22 -13,-42l-359 -883 103 0 254 623c27,68 53,145 71,205l4 0c21,-58 45,-133 75,-211l237 -617 103 0 -291 711c-117,296 -221,512 -357,606l-38 -78z"/>
   <path class="fil2" d="M2180 6711c-212,-6 -491,26 -491,254 0,137 93,198 194,198 162,0 255,-97 287,-190 8,-20 10,-42 10,-58l0 -204zm97 284c0,75 2,153 15,226l-89 0 -15 -137 -4 0c-48,73 -155,159 -311,159 -196,0 -285,-135 -285,-262 0,-221 196,-354 592,-350l0 -25c0,-94 -18,-282 -248,-280 -85,0 -174,21 -245,71l-30 -69c89,-58 198,-82 285,-82 281,0 335,207 335,375l0 374z"/>
   <path class="fil2" d="M2508 6554c0,-95 -2,-193 -8,-286l89 0 4 193 6 0c42,-121 143,-215 275,-215 14,0 28,2 40,4l0 90c-14,-2 -28,-2 -46,-2 -134,0 -229,113 -255,266 -6,27 -8,59 -8,91l0 526 -97 0 0 -667z"/>
   <polygon class="fil2" points="3040,6268 3137,6268 3137,7221 3040,7221 "/>
   <path class="fil2" d="M3889 6711c-212,-6 -492,26 -492,254 0,137 93,198 194,198 162,0 255,-97 288,-190 8,-20 10,-42 10,-58l0 -204zm97 284c0,75 2,153 14,226l-89 0 -14 -137 -4 0c-49,73 -156,159 -312,159 -196,0 -285,-135 -285,-262 0,-221 196,-354 593,-350l0 -25c0,-94 -19,-282 -249,-280 -85,0 -174,21 -245,71l-30 -69c89,-58 198,-82 285,-82 281,0 336,207 336,375l0 374z"/>
   <path class="fil2" d="M4231 5992l84 0 0 447 4 0c29,-54 75,-103 132,-137 56,-34 123,-56 196,-56 91,0 337,46 337,401l0 574 -97 0 0 -564c0,-170 -68,-327 -266,-327 -138,0 -251,97 -294,214 -10,30 -12,56 -12,95l0 582 -85 0 1 -1229z"/>
  </g>
 </g>
</svg>
